<svg width="91" height="26" viewBox="0 0 91 26" fill="none" xmlns="http://www.w3.org/2000/svg">
<path d="M3.31934 24.6943C3.15462 24.6943 2.93978 24.6729 2.6748 24.6299C2.40983 24.5941 2.20573 24.5583 2.0625 24.5225L2.27734 22.8574C2.39909 22.8717 2.56738 22.8825 2.78223 22.8896C2.99707 22.904 3.14388 22.9111 3.22266 22.9111C3.67383 22.9111 4.03906 22.7393 4.31836 22.3955C4.60482 22.0518 4.86979 21.5827 5.11328 20.9883L5.61816 19.7637L1.50391 9.91309L0.257812 9.74121V8.37695H5.13477V9.74121L3.72754 9.95605L5.99414 15.7676L6.54199 17.2822H6.60645L9.29199 9.95605L7.80957 9.74121V8.37695H12.5898V9.74121L11.3867 9.91309L6.81055 21.7832C6.5957 22.3418 6.33431 22.8395 6.02637 23.2764C5.72559 23.7204 5.35319 24.0677 4.90918 24.3184C4.47233 24.569 3.94238 24.6943 3.31934 24.6943ZM18.6162 20.2256C17.542 20.2256 16.6074 19.9821 15.8125 19.4951C15.0176 19.001 14.4017 18.3171 13.9648 17.4434C13.5352 16.5697 13.3203 15.5599 13.3203 14.4141V13.9414C13.3203 12.8385 13.5459 11.8538 13.9971 10.9873C14.4554 10.1136 15.0605 9.42611 15.8125 8.9248C16.5716 8.41634 17.3988 8.16211 18.2939 8.16211C19.3395 8.16211 20.2132 8.37695 20.915 8.80664C21.624 9.23633 22.1576 9.84147 22.5156 10.6221C22.8737 11.3955 23.0527 12.3086 23.0527 13.3613V14.6826H15.5117L15.4795 14.7363C15.4938 15.4811 15.6227 16.1436 15.8662 16.7236C16.1169 17.2965 16.4749 17.7477 16.9404 18.0771C17.4059 18.4066 17.9645 18.5713 18.6162 18.5713C19.3324 18.5713 19.959 18.471 20.4961 18.2705C21.0404 18.0628 21.5094 17.7799 21.9033 17.4219L22.7305 18.7969C22.3151 19.1979 21.7637 19.5381 21.0762 19.8174C20.3958 20.0895 19.5758 20.2256 18.6162 20.2256ZM15.5762 13.0283H20.9365V12.749C20.9365 12.1904 20.8363 11.6927 20.6357 11.2559C20.4424 10.8118 20.1488 10.4645 19.7549 10.2139C19.3682 9.95605 18.8812 9.82715 18.2939 9.82715C17.8213 9.82715 17.3916 9.9668 17.0049 10.2461C16.6182 10.5182 16.2995 10.8906 16.0488 11.3633C15.7982 11.8359 15.6335 12.373 15.5547 12.9746L15.5762 13.0283ZM24.5137 24.6943C24.2845 24.6943 24.0768 24.6764 23.8906 24.6406C23.7044 24.612 23.5111 24.5654 23.3105 24.501L23.4502 22.8896C23.5505 22.9255 23.7188 22.9577 23.9551 22.9863C24.1986 23.015 24.3848 23.0293 24.5137 23.0293C24.9362 23.0293 25.2692 22.8431 25.5127 22.4707C25.7633 22.1055 25.8887 21.6006 25.8887 20.9561V10.042L24.1377 9.74121V8.37695H28.0049V20.9561C28.0049 22.152 27.6969 23.0723 27.0811 23.7168C26.4652 24.3685 25.6094 24.6943 24.5137 24.6943ZM25.7812 5.50879V3.24219H28.0049V5.50879H25.7812ZM35.4707 20.2256C34.2103 20.2256 33.2256 19.821 32.5166 19.0117C31.8076 18.2025 31.4531 16.9421 31.4531 15.2305V10.042L30.1211 9.74121V8.37695H31.4531H33.5693V15.252C33.5693 16.4909 33.752 17.3431 34.1172 17.8086C34.4824 18.2741 35.0518 18.5068 35.8252 18.5068C36.5771 18.5068 37.1966 18.3564 37.6836 18.0557C38.1777 17.7477 38.5501 17.3145 38.8008 16.7559V10.042L37.2432 9.74121V8.37695H38.8008H40.917V18.3457L42.249 18.6465V20H39.0156L38.876 18.2812C38.5107 18.9043 38.0381 19.3841 37.458 19.7207C36.8851 20.0573 36.2227 20.2256 35.4707 20.2256ZM43.7422 20V18.6465L45.4932 18.3457V10.042L43.7422 9.74121V8.37695H47.3838L47.5342 10.1064C47.9209 9.49056 48.4043 9.01432 48.9844 8.67773C49.5716 8.33398 50.2376 8.16211 50.9824 8.16211C52.2357 8.16211 53.2061 8.53092 53.8936 9.26855C54.5811 9.99902 54.9248 11.1305 54.9248 12.6631V18.3457L56.6758 18.6465V20H51.0576V18.6465L52.8086 18.3457V12.7061C52.8086 11.682 52.6045 10.9551 52.1963 10.5254C51.7952 10.0957 51.1794 9.88086 50.3486 9.88086C49.7399 9.88086 49.1992 10.0277 48.7266 10.3213C48.2611 10.6149 47.8887 11.016 47.6094 11.5244V18.3457L49.3604 18.6465V20H43.7422ZM58.1045 20V18.6465L59.8555 18.3457V10.042L58.1045 9.74121V8.37695H61.9717V18.3457L63.7227 18.6465V20H58.1045ZM59.748 5.50879V3.24219H61.9717V5.50879H59.748ZM68.9434 20.2256C67.7331 20.2256 66.8128 19.932 66.1826 19.3447C65.5524 18.7503 65.2373 17.916 65.2373 16.8418C65.2373 16.1042 65.4378 15.4632 65.8389 14.9189C66.2471 14.3675 66.8343 13.9414 67.6006 13.6406C68.3669 13.3327 69.2835 13.1787 70.3506 13.1787H72.4238V12.04C72.4238 11.3382 72.209 10.7939 71.7793 10.4072C71.3568 10.0205 70.7588 9.82715 69.9854 9.82715C69.4984 9.82715 69.0758 9.88802 68.7178 10.0098C68.3597 10.1243 68.0339 10.2855 67.7402 10.4932L67.5146 12.1152H65.8818V9.45117C66.4046 9.02865 67.0133 8.70996 67.708 8.49512C68.4027 8.27311 69.1725 8.16211 70.0176 8.16211C71.4284 8.16211 72.5348 8.4987 73.3369 9.17188C74.139 9.84505 74.54 10.8083 74.54 12.0615V17.6582C74.54 17.8086 74.54 17.9554 74.54 18.0986C74.5472 18.2419 74.5579 18.3851 74.5723 18.5283L75.7002 18.6465V20H72.6602C72.5957 19.6849 72.5456 19.402 72.5098 19.1514C72.474 18.9007 72.4489 18.6501 72.4346 18.3994C72.0264 18.9222 71.5143 19.359 70.8984 19.71C70.2897 20.0537 69.638 20.2256 68.9434 20.2256ZM69.2549 18.4531C69.9567 18.4531 70.5977 18.2848 71.1777 17.9482C71.7578 17.6117 72.1732 17.207 72.4238 16.7344V14.6289H70.2754C69.3014 14.6289 68.571 14.8617 68.084 15.3271C67.597 15.7926 67.3535 16.3118 67.3535 16.8848C67.3535 17.3932 67.5111 17.7835 67.8262 18.0557C68.1413 18.3206 68.6175 18.4531 69.2549 18.4531ZM77.3438 20V18.6465L79.0947 18.3457V10.042L77.3438 9.74121V8.37695H80.9854L81.1357 10.1064C81.5225 9.49056 82.0059 9.01432 82.5859 8.67773C83.1732 8.33398 83.8392 8.16211 84.584 8.16211C85.8372 8.16211 86.8076 8.53092 87.4951 9.26855C88.1826 9.99902 88.5264 11.1305 88.5264 12.6631V18.3457L90.2773 18.6465V20H84.6592V18.6465L86.4102 18.3457V12.7061C86.4102 11.682 86.2061 10.9551 85.7979 10.5254C85.3968 10.0957 84.7809 9.88086 83.9502 9.88086C83.3415 9.88086 82.8008 10.0277 82.3281 10.3213C81.8626 10.6149 81.4902 11.016 81.2109 11.5244V18.3457L82.9619 18.6465V20H77.3438Z" fill="#191A1E"/>
</svg>
